<svg width="206" height="40" viewBox="0 0 206 40" fill="none" xmlns="http://www.w3.org/2000/svg">
<path d="M62.6483 28.8V14.0032H56.9283V10.752H72.4059V14.0032H66.6859V28.8H62.6483Z" fill="white"/>
<path d="M81.2316 19.0976L79.0316 19.328C77.9446 19.4304 77.1767 19.7376 76.7281 20.2496C76.2795 20.7445 76.0552 21.4101 76.0552 22.2464V28.8H72.1469V16.2304H75.8999V18.3552C76.5383 16.9045 77.8583 16.1109 79.8599 15.9744L80.9987 15.8976L81.2316 19.0976Z" fill="white"/>
<path d="M88.1776 15.9232C90.0756 15.9232 91.4733 16.3669 92.3705 17.2544C93.2851 18.1418 93.7423 19.5157 93.7423 21.376V28.8H90.0411V26.9312C89.7823 27.5797 89.3509 28.0917 88.747 28.4672C88.1431 28.8256 87.4356 29.0048 86.6247 29.0048C85.7619 29.0048 84.9768 28.8341 84.2694 28.4928C83.5792 28.1514 83.027 27.6736 82.6129 27.0592C82.216 26.4448 82.0176 25.7621 82.0176 25.0112C82.0176 24.0896 82.2505 23.3643 82.7164 22.8352C83.1996 22.3061 83.9674 21.9221 85.02 21.6832C86.0725 21.4442 87.5133 21.3248 89.3423 21.3248H90.0153V20.864C90.0153 20.1131 89.8513 19.584 89.5235 19.2768C89.1956 18.9696 88.6262 18.816 87.8153 18.816C87.1941 18.816 86.5039 18.9269 85.7447 19.1488C84.9854 19.3706 84.2607 19.6778 83.5705 20.0704L82.5352 17.4848C83.26 17.041 84.1486 16.6741 85.2011 16.384C86.2709 16.0768 87.2631 15.9232 88.1776 15.9232ZM87.4788 26.3424C88.238 26.3424 88.8505 26.0949 89.3164 25.6C89.7823 25.088 90.0153 24.4309 90.0153 23.6288V23.1936H89.5753C88.1776 23.1936 87.1941 23.3045 86.6247 23.5264C86.0725 23.7482 85.7964 24.1493 85.7964 24.7296C85.7964 25.1904 85.9517 25.5744 86.2623 25.8816C86.5902 26.1888 86.9956 26.3424 87.4788 26.3424Z" fill="white"/>
<path d="M105.464 16.256H109.295L103.704 28.8H100.391L94.8785 16.256H98.942L102.151 24.2432L105.464 16.256Z" fill="white"/>
<path d="M121.677 23.2448H113.395C113.516 24.2517 113.844 24.9856 114.379 25.4464C114.931 25.8901 115.707 26.112 116.708 26.112C117.364 26.112 118.011 26.0096 118.649 25.8048C119.305 25.5829 119.9 25.2757 120.435 24.8832L121.47 27.4688C120.849 27.9467 120.09 28.3221 119.193 28.5952C118.313 28.8682 117.424 29.0048 116.527 29.0048C114.387 29.0048 112.696 28.4245 111.454 27.264C110.229 26.0864 109.616 24.4907 109.616 22.4768C109.616 21.1968 109.884 20.0618 110.419 19.072C110.954 18.0821 111.696 17.3141 112.645 16.768C113.594 16.2048 114.672 15.9232 115.88 15.9232C117.657 15.9232 119.063 16.4949 120.099 17.6384C121.151 18.7818 121.677 20.3349 121.677 22.2976V23.2448ZM115.983 18.5856C115.241 18.5856 114.646 18.8245 114.197 19.3024C113.766 19.7632 113.499 20.4373 113.395 21.3248H118.39C118.339 20.4202 118.106 19.7376 117.692 19.2768C117.295 18.816 116.725 18.5856 115.983 18.5856Z" fill="white"/>
<path d="M124.038 28.8V10.752H127.946V28.8H124.038Z" fill="white"/>
<path d="M130.938 28.8V10.752H134.847V28.8H130.938Z" fill="white"/>
<path d="M137.839 28.8V16.2304H141.747V28.8H137.839ZM137.709 10.1888H141.902V13.7984H137.709V10.1888Z" fill="white"/>
<path d="M152.711 15.9232C154.229 15.9232 155.359 16.3669 156.101 17.2544C156.843 18.1248 157.214 19.4474 157.214 21.2224V28.8H153.306V21.4016C153.306 20.5482 153.142 19.9253 152.814 19.5328C152.504 19.1402 152.012 18.944 151.339 18.944C150.528 18.944 149.872 19.2 149.372 19.712C148.889 20.224 148.647 20.9066 148.647 21.76V28.8H144.739V16.2304H148.544V18.0224C148.992 17.3397 149.57 16.8192 150.278 16.4608C151.002 16.1024 151.813 15.9232 152.711 15.9232Z" fill="white"/>
<path d="M177.948 28.8H173.108L165.188 20.48V28.8H161.15V10.752H165.188V18.688L172.849 10.752H177.611L169.122 19.3792L177.948 28.8Z" fill="#FC7E2F"/>
<path d="M190.37 16.2304V28.8H186.566V27.008C186.169 27.6565 185.643 28.1515 184.987 28.4928C184.349 28.8341 183.624 29.0048 182.813 29.0048C181.208 29.0048 180.009 28.5696 179.215 27.6992C178.439 26.8117 178.05 25.4805 178.05 23.7056V16.2304H181.959V23.7824C181.959 24.5333 182.114 25.088 182.425 25.4464C182.752 25.8048 183.244 25.984 183.9 25.984C184.659 25.984 185.272 25.728 185.738 25.216C186.221 24.704 186.462 24.0299 186.462 23.1936V16.2304H190.37Z" fill="#FC7E2F"/>
<path d="M202.169 16.256H206L198.339 33.408H194.379L196.812 28.1088L191.584 16.256H195.647L198.856 24.2432L202.169 16.256Z" fill="#FC7E2F"/>
<path fill-rule="evenodd" clip-rule="evenodd" d="M5 0C2.23858 0 0 2.23858 0 5V35C0 37.7614 2.23858 40 5.00001 40H35.4412C38.2026 40 40.4412 37.7614 40.4412 35V5C40.4412 2.23858 38.2026 0 35.4412 0H5ZM17.2886 12.7333V32H22.5459V12.7333H29.9938V8.49999H9.84064V12.7333H17.2886Z" fill="url(#paint0_linear)"/>
<defs>
<linearGradient id="paint0_linear" x1="0" y1="0" x2="39.9976" y2="40.4388" gradientUnits="userSpaceOnUse">
<stop stop-color="white"/>
<stop offset="1" stop-color="#E6F6FF"/>
</linearGradient>
</defs>
</svg>
